:SAMPLES-PER-SECOND 30
:FULLY-SPECIFIED
:DEGREES
494
root  4.40067 38.4416 -0.126716 -164.816 -86.4712 158.932
RightUpLeg  1.33002 -9.95514 -20.2424
RightLeg  8.47252 5.4361 -3.41101
RightFoot  -0.259254 -2.04437 20.8316
RightToes  1.16414e-010 0 -3.6325e-017
Spine  13.9294 -0.208473 5.67655
Spine1  -6.35049 0.741544 -1.96169
HEad  -3.40869 2.51999 -3.4013
LeftShoulder1  1.76437 -3.76643 -17.6415
LeftArm  16.4042 27.3563 -49.537
LeftForeArm  54.4184 -62.9866 -16.5033
LeftHand  -0.926209 -2.01292 14.6871
RightShoulder  1.70884 2.85607 20.553
RightArm  7.8895 -23.8879 45.2101
RightForeArm  37.3791 50.6594 10.7152
RightHand  -0.754715 0.391864 -15.2007
LeftUpLeg  2.44352 8.41605 22.3822
LeftLeg  11.593 -0.918909 1.86585
LeftFoot  5.62041 4.34555 -28.7311
LeftToes  7.09373e-011 9.9627e-011 8.96859e-012
495
root  4.22943 38.4113 0.541243 -153.918 -86.4909 148.108
RightUpLeg  3.22175 -12.5028 -22.5987
RightLeg  5.00615 7.91226 -3.32982
RightFoot  1.14611 -2.47203 22.3995
RightToes  1.16414e-010 0 -3.6325e-017
Spine  13.8364 -0.206909 4.20154
Spine1  -6.40909 0.339393 -0.985618
HEad  -0.52756 2.14024 -3.34549
LeftShoulder1  1.87857 -3.83431 -19.0809
LeftArm  15.242 26.9541 -50.1755
LeftForeArm  46.7851 -53.3053 -11.2104
LeftHand  -0.953373 -1.29545 16.6763
RightShoulder  1.68993 2.69065 20.9981
RightArm  8.39122 -23.0672 43.9061
RightForeArm  31.9148 42.2372 8.02012
RightHand  -0.827432 0.542589 -16.2362
LeftUpLeg  4.56964 13.1776 21.3242
LeftLeg  8.7401 -4.7798 1.55636
LeftFoot  2.04968 3.26814 -27.4269
LeftToes  7.09373e-011 9.9627e-011 8.96859e-012
496
root  4.10535 38.4042 1.06036 -137.796 -86.1459 132.343
RightUpLeg  4.42982 -13.8802 -24.9088
RightLeg  2.20186 8.85387 -3.36614
RightFoot  2.55855 -2.85507 23.2767
RightToes  1.16414e-010 0 -3.6325e-017
Spine  13.6569 -0.045992 2.39405
Spine1  -6.70921 0.162417 -0.624677
HEad  2.50716 1.31152 -2.54777
LeftShoulder1  1.96808 -3.95359 -19.9332
LeftArm  15.5756 25.7538 -50.2456
LeftForeArm  38.3443 -44.1482 -8.21691
LeftHand  -0.93204 -0.38918 18.7574
RightShoulder  1.68344 2.55148 21.5556
RightArm  9.63414 -22.4761 43.1345
RightForeArm  25.5601 34.4225 6.13639
RightHand  -0.88986 0.642157 -17.1594
LeftUpLeg  5.63093 14.4056 19.4879
LeftLeg  6.5212 -4.88455 1.24844
LeftFoot  0.616553 2.62056 -24.7402
LeftToes  7.09373e-011 9.9627e-011 8.96859e-012
497
root  4.02327 38.4162 1.42345 -129.068 -85.4128 124.486
RightUpLeg  4.31046 -14.3189 -26.1412
RightLeg  0.444665 8.5732 -3.75673
RightFoot  3.83101 -3.08722 23.094
RightToes  1.16414e-010 0 -3.6325e-017
Spine  12.9669 0.210532 1.36054
Spine1  -6.98195 0.34841 -1.28052
HEad  5.30591 0.408507 -1.41713
LeftShoulder1  1.99937 -4.01174 -20.1601
LeftArm  17.6817 24.1862 -49.7213
LeftForeArm  29.5552 -36.2125 -6.41696
LeftHand  -0.920767 0.112726 20.2346
RightShoulder  1.69187 2.5229 21.8467
RightArm  11.8082 -21.9019 43.6766
RightForeArm  16.994 26.4799 5.04724
RightHand  -0.948738 0.700658 -18.1038
LeftUpLeg  5.65424 13.9835 17.6379
LeftLeg  5.08136 -3.2245 1.15133
LeftFoot  0.19431 2.44035 -23.8681
LeftToes  7.09373e-011 9.9627e-011 8.96859e-012
498
root  3.95555 38.4456 1.62649 -129.63 -84.6695 126.11
RightUpLeg  3.39356 -14.3768 -26.3672
RightLeg  -0.583292 8.11401 -4.16389
RightFoot  4.9212 -3.23343 22.5966
RightToes  1.16414e-010 0 -3.6325e-017
Spine  11.8843 0.531946 1.17627
Spine1  -6.95359 0.79643 -2.61981
HEad  7.59394 -0.205577 -0.400864
LeftShoulder1  1.98068 -3.94024 -20.1644
LeftArm  21.0765 22.6528 -48.7061
LeftForeArm  21.7194 -29.9377 -5.29139
LeftHand  -0.961922 0.0978462 21.0731
RightShoulder  1.70945 2.61963 21.6796
RightArm  8.31017 -21.0189 44.8762
RightForeArm  13.8661 17.6318 7.28745
RightHand  -0.993732 0.823856 -18.5848
LeftUpLeg  5.57872 13.7155 16.6826
LeftLeg  3.87179 -2.13697 0.923159
LeftFoot  -0.0541898 2.43437 -24.3018
LeftToes  7.09373e-011 9.9627e-011 8.96859e-012
